<?xml version="1.0" encoding="UTF-8"?>
<svg id="Layer_2" data-name="Layer 2" xmlns="http://www.w3.org/2000/svg" viewBox="0 0 647.81 177.56">
  <defs>
    <style>
      .cls-1 {
        fill: #fff;
        stroke-width: 0px;
      }
    </style>
  </defs>
  <g id="Layer_1-2" data-name="Layer 1">
    <path class="cls-1" d="M471.47,0v60h-58.78V0h-176.35v60h-58.78V0h-94.78C37.06,0,0,37.06,0,82.78v12c0,45.72,37.06,82.78,82.78,82.78h94.78v-58.78h58.78v58.78h176.35v-58.78h58.78v58.78h93.56c45.72,0,82.78-37.06,82.78-82.78v-12c0-45.72-37.06-82.78-82.78-82.78h-93.56ZM559.03,171.56h-81.56s0-58.78,0-58.78h-70.78v58.78h-164.35v-58.78h-70.78v58.78h-82.78c-45.72,0-82.78-37.06-82.78-82.78h0C6,43.06,43.06,6,88.78,6h82.78s0,60,0,60h70.78V6h164.35v60h70.78V6h81.56c45.72,0,82.78,37.06,82.78,82.78h0c0,45.72-37.06,82.78-82.78,82.78ZM555.8,124.58c22.52,2.39,41.42-16.51,39.03-39.03-1.74-16.41-14.93-29.6-31.34-31.34-22.52-2.39-41.42,16.51-39.03,39.03,1.74,16.41,14.93,29.6,31.34,31.34ZM538.86,68.61c5.32-5.32,12.66-8.61,20.78-8.61s15.46,3.29,20.78,8.61c5.32,5.32,8.61,12.66,8.61,20.78s-3.29,15.46-8.61,20.78c-5.83,5.83-14.09,9.23-23.15,8.52-14.26-1.12-25.81-12.67-26.93-26.93-.71-9.06,2.68-17.32,8.52-23.15ZM289.12,45.53v67.51c0,6.48,5.26,11.74,11.74,11.74h47.31c6.48,0,11.74-5.26,11.74-11.74V45.94l-35.92,34.42-34.87-34.83ZM342.17,118.78h-35.31c-6.48,0-11.74-5.26-11.74-11.74v-47.04l28.79,28.75,30-28.75v47.04c0,6.48-5.26,11.74-11.74,11.74ZM94.37,54h-11.43c-15.98,0-28.94,12.96-28.94,28.94v12.9c0,15.98,12.96,28.94,28.94,28.94h41.84v-40.37c0-16.79-13.62-30.41-30.41-30.41ZM118.78,118.78h-35.84c-12.67,0-22.94-10.27-22.94-22.94v-12.9c0-12.67,10.27-22.94,22.94-22.94h11.43c13.48,0,24.41,10.93,24.41,24.41v34.37Z"/>
  </g>
</svg>